<svg width="20" height="20" viewBox="0 0 20 20" fill="none" xmlns="http://www.w3.org/2000/svg">
<path d="M14.6346 14.9751H5.36797C2.0513 14.9751 1.04297 13.9667 1.04297 10.6501V5.36675C1.04297 2.05008 2.0513 1.04175 5.36797 1.04175H14.6263C17.943 1.04175 18.9513 2.05008 18.9513 5.36675V10.6417C18.9596 13.9667 17.9513 14.9751 14.6346 14.9751ZM5.36797 2.29175C2.7513 2.29175 2.29297 2.75008 2.29297 5.36675V10.6417C2.29297 13.2584 2.7513 13.7167 5.36797 13.7167H14.6263C17.243 13.7167 17.7013 13.2584 17.7013 10.6417V5.36675C17.7013 2.75008 17.243 2.29175 14.6263 2.29175H5.36797Z" fill="#4B5563"/>
<path d="M10 18.9584C9.65833 18.9584 9.375 18.6751 9.375 18.3334V14.3501C9.375 14.0084 9.65833 13.7251 10 13.7251C10.3417 13.7251 10.625 14.0084 10.625 14.3501V18.3334C10.625 18.6751 10.3417 18.9584 10 18.9584Z" fill="#4B5563"/>
<path d="M18.3346 11.4583H1.66797C1.3263 11.4583 1.04297 11.1749 1.04297 10.8333C1.04297 10.4916 1.3263 10.2083 1.66797 10.2083H18.3346C18.6763 10.2083 18.9596 10.4916 18.9596 10.8333C18.9596 11.1749 18.6763 11.4583 18.3346 11.4583Z" fill="#4B5563"/>
<path d="M13.75 18.9583H6.25C5.90833 18.9583 5.625 18.6749 5.625 18.3333C5.625 17.9916 5.90833 17.7083 6.25 17.7083H13.75C14.0917 17.7083 14.375 17.9916 14.375 18.3333C14.375 18.6749 14.0917 18.9583 13.75 18.9583Z" fill="#4B5563"/>
</svg>
