<svg width="20" height="20" viewBox="0 0 20 20" fill="none" xmlns="http://www.w3.org/2000/svg">
<path fill-rule="evenodd" clip-rule="evenodd" d="M10.6237 2.91675C8.89784 2.91675 7.49873 4.31586 7.49873 6.04175C7.49873 7.76764 8.89784 9.16675 10.6237 9.16675C12.3496 9.16675 13.7487 7.76764 13.7487 6.04175C13.7487 4.31586 12.3496 2.91675 10.6237 2.91675ZM6.24873 6.04175C6.24873 3.6255 8.20749 1.66675 10.6237 1.66675C13.04 1.66675 14.9987 3.6255 14.9987 6.04175C14.9987 8.45799 13.04 10.4167 10.6237 10.4167C8.20749 10.4167 6.24873 8.45799 6.24873 6.04175ZM8.42122 12.0834C8.46041 12.0834 8.50013 12.0834 8.5404 12.0834H12.7071C12.7473 12.0834 12.787 12.0834 12.8262 12.0834C13.8747 12.0832 14.5429 12.083 15.1061 12.2539C16.3712 12.6376 17.3612 13.6276 17.745 14.8927C17.9158 15.4559 17.9156 16.1241 17.9154 17.1726C17.9154 17.2118 17.9154 17.2515 17.9154 17.2917C17.9154 17.6369 17.6356 17.9167 17.2904 17.9167C16.9452 17.9167 16.6654 17.6369 16.6654 17.2917C16.6654 16.0833 16.6586 15.6176 16.5488 15.2556C16.2862 14.39 15.6088 13.7126 14.7433 13.45C14.3812 13.3402 13.9155 13.3334 12.7071 13.3334H8.5404C7.33196 13.3334 6.86629 13.3402 6.50421 13.45C5.63862 13.7126 4.96126 14.39 4.69869 15.2556C4.58885 15.6176 4.58207 16.0833 4.58207 17.2917C4.58207 17.6369 4.30224 17.9167 3.95707 17.9167C3.61189 17.9167 3.33207 17.6369 3.33207 17.2917C3.33207 17.2515 3.33206 17.2118 3.33205 17.1726C3.33182 16.1241 3.33167 15.4559 3.50251 14.8927C3.88627 13.6276 4.87627 12.6376 6.14135 12.2539C6.70454 12.083 7.37279 12.0832 8.42122 12.0834Z" fill="#4B5563"/>
<path d="M10.5145 17.2333C10.7 17.3878 10.9693 17.3878 11.1547 17.2333L12.2067 16.3566C12.3805 16.2118 12.4354 15.9683 12.3406 15.763L11.2886 13.4836C11.1099 13.0963 10.5594 13.0963 10.3807 13.4836L9.32866 15.763C9.23387 15.9683 9.28877 16.2118 9.46255 16.3566L10.5145 17.2333Z" stroke="#4B5563" stroke-width="1.3" stroke-linecap="round" stroke-linejoin="round"/>
</svg>
