<svg width="21" height="20" viewBox="0 0 21 20" fill="none" xmlns="http://www.w3.org/2000/svg">
<path fill-rule="evenodd" clip-rule="evenodd" d="M3.16753 0.250001C3.17625 0.250002 3.18499 0.250002 3.19375 0.250002L7.01997 0.250001C7.27746 0.249983 7.51394 0.249966 7.71162 0.266117C7.92476 0.283531 8.15793 0.323394 8.38824 0.440741C8.71752 0.608519 8.98524 0.876236 9.15301 1.20552C9.27036 1.43583 9.31022 1.669 9.32764 1.88213C9.34379 2.07982 9.34377 2.3163 9.34375 2.57379V6.42622C9.34377 6.6837 9.34379 6.92019 9.32764 7.11787C9.31022 7.33101 9.27036 7.56418 9.15301 7.79449C8.98524 8.12377 8.71752 8.39149 8.38824 8.55926C8.15793 8.67661 7.92476 8.71647 7.71162 8.73389C7.51394 8.75004 7.27745 8.75002 7.01997 8.75H3.16754C2.91005 8.75002 2.67357 8.75004 2.47588 8.73389C2.26275 8.71647 2.02958 8.67661 1.79927 8.55926C1.46999 8.39149 1.20227 8.12377 1.03449 7.79449C0.917144 7.56418 0.877281 7.33101 0.859867 7.11787C0.843716 6.92019 0.843733 6.68371 0.843751 6.42622L0.843752 2.6C0.843752 2.59124 0.843752 2.5825 0.843751 2.57378C0.843733 2.3163 0.843716 2.07982 0.859867 1.88213C0.877281 1.669 0.917144 1.43583 1.03449 1.20552C1.20227 0.876235 1.46999 0.608519 1.79927 0.440741C2.02958 0.323394 2.26275 0.283531 2.47588 0.266117C2.67357 0.249966 2.91005 0.249983 3.16753 0.250001ZM2.47463 1.77973C2.4746 1.77972 2.47507 1.77952 2.47614 1.77917L2.47463 1.77973ZM2.47721 1.77883C2.48609 1.77607 2.51922 1.76757 2.59803 1.76114C2.72716 1.75059 2.90135 1.75 3.19375 1.75H6.99375C7.28615 1.75 7.46035 1.75059 7.58948 1.76114C7.66828 1.76757 7.70141 1.77607 7.71029 1.77883C7.75493 1.80235 7.79141 1.83883 7.81493 1.88347C7.81768 1.89234 7.82618 1.92547 7.83262 2.00428C7.84317 2.13341 7.84375 2.3076 7.84375 2.6V6.4C7.84375 6.6924 7.84317 6.8666 7.83262 6.99573C7.82618 7.07453 7.81769 7.10766 7.81493 7.11654C7.79141 7.16118 7.75493 7.19766 7.71029 7.22118C7.70141 7.22393 7.66828 7.23243 7.58948 7.23887C7.46035 7.24942 7.28615 7.25 6.99375 7.25H3.19375C2.90135 7.25 2.72716 7.24942 2.59803 7.23887C2.51922 7.23243 2.48609 7.22393 2.47721 7.22118C2.43257 7.19766 2.3961 7.16118 2.37258 7.11654C2.36982 7.10766 2.36132 7.07453 2.35489 6.99573C2.34434 6.8666 2.34375 6.6924 2.34375 6.4V2.6C2.34375 2.3076 2.34434 2.13341 2.35489 2.00428C2.36132 1.92547 2.36982 1.89234 2.37258 1.88347C2.3961 1.83883 2.43258 1.80235 2.47721 1.77883ZM2.37348 1.88088C2.37349 1.88091 2.37331 1.88144 2.37292 1.88239L2.37348 1.88088ZM2.37348 7.11913C2.37347 7.11916 2.37328 7.11869 2.37293 7.11764L2.37348 7.11913ZM2.47463 7.22027C2.47466 7.22027 2.47519 7.22044 2.47614 7.22083L2.47463 7.22027ZM7.71288 7.22028C7.71291 7.22028 7.71244 7.22048 7.71136 7.22084L7.71288 7.22028ZM7.81403 7.11913C7.81401 7.1191 7.81419 7.11857 7.81459 7.11761L7.81403 7.11913ZM7.81403 1.88088C7.81404 1.88085 7.81423 1.88132 7.81457 1.88236L7.81403 1.88088ZM7.71139 1.77918C7.71244 1.77953 7.71291 1.77972 7.71288 1.77973L7.71139 1.77918ZM14.1675 0.250001H18.02C18.2775 0.249983 18.5139 0.249966 18.7116 0.266117C18.9248 0.283531 19.1579 0.323394 19.3882 0.440741C19.7175 0.60852 19.9852 0.876236 20.153 1.20552C20.2704 1.43583 20.3102 1.669 20.3276 1.88213C20.3438 2.07981 20.3438 2.31629 20.3438 2.57377V6.42623C20.3438 6.68372 20.3438 6.92019 20.3276 7.11787C20.3102 7.33101 20.2704 7.56418 20.153 7.79449C19.9852 8.12377 19.7175 8.39149 19.3882 8.55926C19.1579 8.67661 18.9248 8.71647 18.7116 8.73389C18.5139 8.75004 18.2775 8.75002 18.02 8.75H14.1675C13.9101 8.75002 13.6736 8.75004 13.4759 8.73389C13.2627 8.71647 13.0296 8.67661 12.7993 8.55926C12.47 8.39149 12.2023 8.12377 12.0345 7.79449C11.9171 7.56418 11.8773 7.33101 11.8599 7.11787C11.8437 6.92019 11.8437 6.68372 11.8438 6.42623V2.57377C11.8437 2.31629 11.8437 2.07981 11.8599 1.88213C11.8773 1.669 11.9171 1.43583 12.0345 1.20552C12.2023 0.876236 12.47 0.60852 12.7993 0.440741C13.0296 0.323394 13.2627 0.283531 13.4759 0.266117C13.6736 0.249966 13.91 0.249983 14.1675 0.250001ZM13.4746 1.77973C13.4746 1.77972 13.4751 1.77953 13.4761 1.77918L13.4746 1.77973ZM13.4772 1.77883C13.4861 1.77607 13.5192 1.76757 13.598 1.76114C13.7272 1.75059 13.9014 1.75 14.1938 1.75H17.9938C18.2862 1.75 18.4603 1.75059 18.5895 1.76114C18.6683 1.76757 18.7014 1.77607 18.7103 1.77883C18.7549 1.80234 18.7914 1.83882 18.8149 1.88346C18.8177 1.89234 18.8262 1.92546 18.8326 2.00428C18.8432 2.13341 18.8438 2.3076 18.8438 2.6V6.4C18.8438 6.6924 18.8432 6.8666 18.8326 6.99573C18.8262 7.07454 18.8177 7.10767 18.8149 7.11654C18.7914 7.16118 18.7549 7.19766 18.7103 7.22118C18.7014 7.22393 18.6683 7.23243 18.5895 7.23887C18.4603 7.24942 18.2862 7.25 17.9938 7.25H14.1938C13.9014 7.25 13.7272 7.24942 13.598 7.23887C13.5192 7.23243 13.4861 7.22394 13.4772 7.22118C13.4326 7.19766 13.3961 7.16118 13.3726 7.11654C13.3698 7.10767 13.3613 7.07454 13.3549 6.99573C13.3443 6.8666 13.3438 6.6924 13.3438 6.4V2.6C13.3438 2.3076 13.3443 2.13341 13.3549 2.00428C13.3613 1.92548 13.3698 1.89235 13.3726 1.88347C13.3961 1.83883 13.4326 1.80235 13.4772 1.77883ZM13.3735 1.88088C13.3735 1.88091 13.3733 1.88144 13.3729 1.88237L13.3735 1.88088ZM13.3735 7.11913C13.3735 7.11916 13.3733 7.11869 13.3729 7.11764L13.3735 7.11913ZM13.4746 7.22028C13.4746 7.22026 13.4752 7.22044 13.4761 7.22084L13.4746 7.22028ZM18.7129 7.22027C18.7129 7.22028 18.7124 7.22048 18.7114 7.22082L18.7129 7.22027ZM18.814 7.11912C18.814 7.11906 18.8142 7.11853 18.8146 7.11761L18.814 7.11912ZM18.814 1.88088C18.814 1.88085 18.8142 1.88132 18.8146 1.88236L18.814 1.88088ZM18.7114 1.77918C18.7124 1.77953 18.7129 1.77972 18.7129 1.77973L18.7114 1.77918ZM3.16752 11.25H7.01998C7.27747 11.25 7.51394 11.25 7.71162 11.2661C7.92476 11.2835 8.15793 11.3234 8.38824 11.4407C8.71752 11.6085 8.98524 11.8762 9.15301 12.2055C9.27036 12.4358 9.31022 12.669 9.32764 12.8821C9.34379 13.0798 9.34377 13.3163 9.34375 13.5738V17.4262C9.34377 17.6837 9.34379 17.9202 9.32764 18.1179C9.31022 18.331 9.27036 18.5642 9.15301 18.7945C8.98524 19.1238 8.71752 19.3915 8.38824 19.5593C8.15793 19.6766 7.92476 19.7165 7.71162 19.7339C7.51394 19.75 7.27747 19.75 7.01998 19.75H3.16752C2.91004 19.75 2.67356 19.75 2.47588 19.7339C2.26275 19.7165 2.02958 19.6766 1.79927 19.5593C1.46999 19.3915 1.20227 19.1238 1.03449 18.7945C0.917144 18.5642 0.877281 18.331 0.859867 18.1179C0.843716 17.9202 0.843733 17.6837 0.843751 17.4262V13.5738C0.843733 13.3163 0.843716 13.0798 0.859867 12.8821C0.877281 12.669 0.917144 12.4358 1.03449 12.2055C1.20227 11.8762 1.46999 11.6085 1.79927 11.4407C2.02958 11.3234 2.26275 11.2835 2.47588 11.2661C2.67356 11.25 2.91004 11.25 3.16752 11.25ZM2.47463 12.7797C2.4746 12.7797 2.47507 12.7795 2.47614 12.7792L2.47463 12.7797ZM2.47721 12.7788C2.48609 12.7761 2.51921 12.7676 2.59803 12.7611C2.72716 12.7506 2.90135 12.75 3.19375 12.75H6.99375C7.28615 12.75 7.46035 12.7506 7.58948 12.7611C7.66829 12.7676 7.70141 12.7761 7.71029 12.7788C7.75493 12.8023 7.79141 12.8388 7.81493 12.8835C7.81769 12.8923 7.82618 12.9255 7.83262 13.0043C7.84317 13.1334 7.84375 13.3076 7.84375 13.6V17.4C7.84375 17.6924 7.84317 17.8666 7.83262 17.9957C7.82618 18.0745 7.81768 18.1077 7.81493 18.1165C7.79141 18.1612 7.75493 18.1977 7.71029 18.2212C7.70142 18.2239 7.6683 18.2324 7.58948 18.2389C7.46035 18.2494 7.28615 18.25 6.99375 18.25H3.19375C2.90135 18.25 2.72716 18.2494 2.59803 18.2389C2.51922 18.2324 2.48609 18.2239 2.47722 18.2212C2.43257 18.1977 2.3961 18.1612 2.37258 18.1165C2.36982 18.1077 2.36132 18.0745 2.35489 17.9957C2.34434 17.8666 2.34375 17.6924 2.34375 17.4V13.6C2.34375 13.3076 2.34434 13.1334 2.35489 13.0043C2.36132 12.9255 2.36982 12.8923 2.37258 12.8835C2.3961 12.8388 2.43257 12.8023 2.47721 12.7788ZM2.37348 12.8809C2.37349 12.8809 2.37332 12.8814 2.37293 12.8824L2.37348 12.8809ZM2.37348 18.1191C2.37347 18.1192 2.37328 18.1187 2.37293 18.1176L2.37348 18.1191ZM2.47463 18.2203C2.47466 18.2203 2.47519 18.2204 2.47612 18.2208L2.47463 18.2203ZM7.71288 18.2203C7.71291 18.2203 7.71244 18.2205 7.71139 18.2208L7.71288 18.2203ZM7.81403 18.1191C7.81401 18.1191 7.81418 18.1186 7.81456 18.1177L7.81403 18.1191ZM7.81403 12.8809C7.81403 12.8808 7.81423 12.8813 7.81459 12.8824L7.81403 12.8809ZM7.71138 12.7792C7.71244 12.7795 7.7129 12.7797 7.71288 12.7797L7.71138 12.7792ZM14.1675 11.25H18.02C18.2775 11.25 18.5139 11.25 18.7116 11.2661C18.9248 11.2835 19.1579 11.3234 19.3882 11.4407C19.7175 11.6085 19.9852 11.8762 20.153 12.2055C20.2704 12.4358 20.3102 12.669 20.3276 12.8821C20.3438 13.0798 20.3438 13.3163 20.3438 13.5738V17.4262C20.3438 17.6837 20.3438 17.9202 20.3276 18.1179C20.3102 18.331 20.2704 18.5642 20.153 18.7945C19.9852 19.1238 19.7175 19.3915 19.3882 19.5593C19.1579 19.6766 18.9248 19.7165 18.7116 19.7339C18.5139 19.75 18.2775 19.75 18.02 19.75H14.1675C13.91 19.75 13.6736 19.75 13.4759 19.7339C13.2627 19.7165 13.0296 19.6766 12.7993 19.5593C12.47 19.3915 12.2023 19.1238 12.0345 18.7945C11.9171 18.5642 11.8773 18.331 11.8599 18.1179C11.8437 17.9202 11.8437 17.6837 11.8438 17.4262V13.5738C11.8437 13.3163 11.8437 13.0798 11.8599 12.8821C11.8773 12.669 11.9171 12.4358 12.0345 12.2055C12.2023 11.8762 12.47 11.6085 12.7993 11.4407C13.0296 11.3234 13.2627 11.2835 13.4759 11.2661C13.6736 11.25 13.91 11.25 14.1675 11.25ZM13.4746 12.7797C13.4746 12.7797 13.475 12.7795 13.4761 12.7792L13.4746 12.7797ZM13.4772 12.7788C13.4861 12.7761 13.5192 12.7676 13.598 12.7611C13.7272 12.7506 13.9014 12.75 14.1938 12.75H17.9938C18.2862 12.75 18.4603 12.7506 18.5895 12.7611C18.6683 12.7676 18.7014 12.7761 18.7103 12.7788C18.7549 12.8023 18.7914 12.8388 18.8149 12.8835C18.8177 12.8923 18.8262 12.9255 18.8326 13.0043C18.8432 13.1334 18.8438 13.3076 18.8438 13.6V17.4C18.8438 17.6924 18.8432 17.8666 18.8326 17.9957C18.8262 18.0745 18.8177 18.1077 18.8149 18.1165C18.7914 18.1612 18.7549 18.1977 18.7103 18.2212C18.7014 18.2239 18.6683 18.2324 18.5895 18.2389C18.4603 18.2494 18.2862 18.25 17.9938 18.25H14.1938C13.9014 18.25 13.7272 18.2494 13.598 18.2389C13.5192 18.2324 13.4861 18.2239 13.4772 18.2212C13.4326 18.1977 13.3961 18.1612 13.3726 18.1165C13.3698 18.1077 13.3613 18.0745 13.3549 17.9957C13.3443 17.8666 13.3438 17.6924 13.3438 17.4V13.6C13.3438 13.3076 13.3443 13.1334 13.3549 13.0043C13.3613 12.9255 13.3698 12.8923 13.3726 12.8835C13.3961 12.8388 13.4326 12.8023 13.4772 12.7788ZM13.3735 12.8809C13.3735 12.8809 13.3733 12.8815 13.3729 12.8824L13.3735 12.8809ZM13.3735 18.1191C13.3735 18.1192 13.3733 18.1187 13.3729 18.1176L13.3735 18.1191ZM13.4746 18.2203C13.4747 18.2203 13.4752 18.2204 13.4761 18.2208L13.4746 18.2203ZM18.7129 18.2203C18.7129 18.2203 18.7124 18.2205 18.7114 18.2208L18.7129 18.2203ZM18.814 12.8809C18.814 12.8808 18.8142 12.8813 18.8146 12.8824L18.814 12.8809Z" fill="#4B5563"/>
</svg>
