<svg width="25" height="24" viewBox="0 0 25 24" fill="none" xmlns="http://www.w3.org/2000/svg">
<path fill-rule="evenodd" clip-rule="evenodd" d="M17.7031 2.78838C17.2404 2.75058 16.6462 2.75 15.7937 2.75H13.0938C12.6795 2.75 12.3438 2.41421 12.3438 2C12.3438 1.58579 12.6795 1.25 13.0938 1.25L15.8259 1.25C16.6387 1.24999 17.2943 1.24999 17.8252 1.29336C18.3719 1.33803 18.852 1.43239 19.2962 1.65873C20.0018 2.01825 20.5755 2.59193 20.935 3.29754C21.1614 3.74175 21.2557 4.2219 21.3004 4.76853C21.3438 5.29944 21.3438 5.95505 21.3438 6.76788V17.2321C21.3438 18.045 21.3438 18.7006 21.3004 19.2315C21.2557 19.7781 21.1614 20.2582 20.935 20.7025C20.5755 21.4081 20.0018 21.9818 19.2962 22.3413C18.852 22.5676 18.3719 22.662 17.8252 22.7066C17.2943 22.75 16.6387 22.75 15.8259 22.75H9.36163C8.5488 22.75 7.89319 22.75 7.36228 22.7066C6.81564 22.662 6.3355 22.5676 5.89129 22.3413C5.18568 21.9818 4.612 21.4081 4.25248 20.7025C4.02613 20.2582 3.93178 19.7781 3.88711 19.2315C3.84374 18.7006 3.84374 18.0449 3.84375 17.2321L3.84375 16.5C3.84375 16.0858 4.17954 15.75 4.59375 15.75C5.00796 15.75 5.34375 16.0858 5.34375 16.5V17.2C5.34375 18.0525 5.34433 18.6467 5.38213 19.1093C5.41921 19.5632 5.48835 19.824 5.58899 20.0215C5.8047 20.4448 6.14891 20.7891 6.57227 21.0048C6.76979 21.1054 7.03055 21.1745 7.48443 21.2116C7.94706 21.2494 8.5413 21.25 9.39375 21.25H15.7937C16.6462 21.25 17.2404 21.2494 17.7031 21.2116C18.1569 21.1745 18.4177 21.1054 18.6152 21.0048C19.0386 20.7891 19.3828 20.4448 19.5985 20.0215C19.6992 19.824 19.7683 19.5632 19.8054 19.1093C19.8432 18.6467 19.8438 18.0525 19.8438 17.2V6.8C19.8438 5.94755 19.8432 5.35331 19.8054 4.89068C19.7683 4.43681 19.6992 4.17604 19.5985 3.97852C19.3828 3.55516 19.0386 3.21095 18.6152 2.99524C18.4177 2.8946 18.1569 2.82547 17.7031 2.78838ZM8.09375 3.75C7.67954 3.75 7.34375 4.08579 7.34375 4.5V10C7.34375 10.4142 7.00796 10.75 6.59375 10.75C6.17954 10.75 5.84375 10.4142 5.84375 10V4.5C5.84375 3.25736 6.85111 2.25 8.09375 2.25C9.33639 2.25 10.3438 3.25736 10.3438 4.5V10C10.3438 12.0711 8.66482 13.75 6.59375 13.75C4.52268 13.75 2.84375 12.0711 2.84375 10V6C2.84375 5.58579 3.17954 5.25 3.59375 5.25C4.00796 5.25 4.34375 5.58579 4.34375 6V10C4.34375 11.2426 5.35111 12.25 6.59375 12.25C7.83639 12.25 8.84375 11.2426 8.84375 10V4.5C8.84375 4.08579 8.50796 3.75 8.09375 3.75ZM12.3438 9C12.3438 8.58579 12.6795 8.25 13.0938 8.25H16.5938C17.008 8.25 17.3438 8.58579 17.3438 9C17.3438 9.41422 17.008 9.75 16.5938 9.75H13.0938C12.6795 9.75 12.3438 9.41422 12.3438 9ZM11.3438 13C11.3438 12.5858 11.6795 12.25 12.0938 12.25H16.5938C17.008 12.25 17.3438 12.5858 17.3438 13C17.3438 13.4142 17.008 13.75 16.5938 13.75H12.0938C11.6795 13.75 11.3438 13.4142 11.3438 13ZM7.84375 17C7.84375 16.5858 8.17954 16.25 8.59375 16.25H16.5938C17.008 16.25 17.3438 16.5858 17.3438 17C17.3438 17.4142 17.008 17.75 16.5938 17.75H8.59375C8.17954 17.75 7.84375 17.4142 7.84375 17Z" fill="#4B5563"/>
</svg>
