<svg width="22" height="20" viewBox="0 0 22 20" fill="none" xmlns="http://www.w3.org/2000/svg">
<path fill-rule="evenodd" clip-rule="evenodd" d="M8.5 1.75C6.70507 1.75 5.25 3.20507 5.25 5C5.25 6.79493 6.70507 8.25 8.5 8.25C10.2949 8.25 11.75 6.79493 11.75 5C11.75 3.20507 10.2949 1.75 8.5 1.75ZM3.75 5C3.75 2.37665 5.87665 0.25 8.5 0.25C11.1234 0.25 13.25 2.37665 13.25 5C13.25 7.62335 11.1234 9.75 8.5 9.75C5.87665 9.75 3.75 7.62335 3.75 5ZM13.8048 1.00935C13.9602 0.625397 14.3975 0.440136 14.7814 0.595555C16.5208 1.29964 17.75 3.00538 17.75 5C17.75 6.99462 16.5208 8.70036 14.7814 9.40444C14.3975 9.55986 13.9602 9.3746 13.8048 8.99065C13.6494 8.6067 13.8346 8.16946 14.2186 8.01404C15.411 7.53135 16.25 6.36275 16.25 5C16.25 3.63725 15.411 2.46865 14.2186 1.98596C13.8346 1.83054 13.6494 1.3933 13.8048 1.00935ZM6.97262 12.25H10.0274C10.9361 12.25 11.6562 12.25 12.2397 12.2898C12.8357 12.3305 13.3436 12.4152 13.8177 12.6116C14.9816 13.0937 15.9063 14.0184 16.3884 15.1823C16.5848 15.6564 16.6695 16.1643 16.7102 16.7603C16.75 17.3438 16.75 18.0639 16.75 18.9726V19C16.75 19.4142 16.4142 19.75 16 19.75C15.5858 19.75 15.25 19.4142 15.25 19C15.25 18.0579 15.2496 17.3888 15.2137 16.8624C15.1782 16.3428 15.1107 16.0172 15.0026 15.7563C14.6728 14.9599 14.0401 14.3272 13.2437 13.9974C12.9828 13.8893 12.6572 13.8218 12.1376 13.7863C11.6112 13.7504 10.9421 13.75 10 13.75H7C6.05786 13.75 5.38881 13.7504 4.86243 13.7863C4.34279 13.8218 4.0172 13.8893 3.75628 13.9974C2.95994 14.3272 2.32725 14.9599 1.99739 15.7563C1.88931 16.0172 1.82178 16.3428 1.78632 16.8624C1.75041 17.3888 1.75 18.0579 1.75 19C1.75 19.4142 1.41421 19.75 1 19.75C0.585787 19.75 0.25 19.4142 0.25 19L0.25 18.9726C0.249996 18.0639 0.249993 17.3438 0.2898 16.7603C0.330466 16.1643 0.415169 15.6564 0.611572 15.1823C1.09367 14.0184 2.01837 13.0937 3.18225 12.6116C3.65641 12.4152 4.16431 12.3305 4.76032 12.2898C5.34375 12.25 6.06393 12.25 6.97262 12.25ZM17.2737 12.9391C17.3769 12.5379 17.7858 12.2964 18.1869 12.3997C20.2355 12.9269 21.75 14.7857 21.75 17V19C21.75 19.4142 21.4142 19.75 21 19.75C20.5858 19.75 20.25 19.4142 20.25 19V17C20.25 15.4867 19.215 14.2132 17.8131 13.8523C17.4119 13.7491 17.1704 13.3402 17.2737 12.9391Z" fill="#4B5563"/>
</svg>
