<svg width="21" height="21" viewBox="0 0 21 21" fill="none" xmlns="http://www.w3.org/2000/svg">
<path fill-rule="evenodd" clip-rule="evenodd" d="M4 0.25C4.19891 0.25 4.38968 0.329018 4.53033 0.46967L7.53033 3.46967C7.82322 3.76256 7.82322 4.23744 7.53033 4.53033C7.23744 4.82322 6.76256 4.82322 6.46967 4.53033L4.75 2.81066V7C4.75 7.41421 4.41421 7.75 4 7.75C3.58579 7.75 3.25 7.41421 3.25 7L3.25 2.81066L1.53033 4.53033C1.23744 4.82322 0.762563 4.82322 0.46967 4.53033C0.176777 4.23744 0.176777 3.76256 0.46967 3.46967L3.46967 0.46967C3.61032 0.329018 3.80109 0.25 4 0.25ZM17.1093 2.78838C16.6467 2.75058 16.0525 2.75 15.2 2.75H11C10.5858 2.75 10.25 2.41421 10.25 2C10.25 1.58579 10.5858 1.25 11 1.25L15.2321 1.25C16.0449 1.24999 16.7006 1.24999 17.2315 1.29336C17.7781 1.33803 18.2582 1.43238 18.7025 1.65873C19.4081 2.01825 19.9817 2.59193 20.3413 3.29754C20.5676 3.74175 20.662 4.22189 20.7066 4.76853C20.75 5.29944 20.75 5.95505 20.75 6.76788V15.2321C20.75 16.045 20.75 16.7006 20.7066 17.2315C20.662 17.7781 20.5676 18.2582 20.3413 18.7025C19.9817 19.4081 19.4081 19.9817 18.7025 20.3413C18.2582 20.5676 17.7781 20.662 17.2315 20.7066C16.7006 20.75 16.045 20.75 15.2321 20.75H6.76788C5.95505 20.75 5.29944 20.75 4.76853 20.7066C4.22189 20.662 3.74175 20.5676 3.29754 20.3413C2.59193 19.9817 2.01825 19.4081 1.65873 18.7025C1.43238 18.2582 1.33803 17.7781 1.29336 17.2315C1.24999 16.7006 1.24999 16.0449 1.25 15.2321L1.25 11C1.25 10.5858 1.58579 10.25 2 10.25C2.41421 10.25 2.75 10.5858 2.75 11V15.2C2.75 16.0525 2.75058 16.6467 2.78838 17.1093C2.82546 17.5632 2.8946 17.824 2.99524 18.0215C3.21095 18.4448 3.55516 18.789 3.97852 19.0048C4.17604 19.1054 4.4368 19.1745 4.89068 19.2116C5.35331 19.2494 5.94755 19.25 6.8 19.25H15.2C16.0525 19.25 16.6467 19.2494 17.1093 19.2116C17.5632 19.1745 17.824 19.1054 18.0215 19.0048C18.4448 18.789 18.789 18.4448 19.0048 18.0215C19.1054 17.824 19.1745 17.5632 19.2116 17.1093C19.2494 16.6467 19.25 16.0525 19.25 15.2V6.8C19.25 5.94755 19.2494 5.35331 19.2116 4.89068C19.1745 4.4368 19.1054 4.17604 19.0048 3.97852C18.789 3.55516 18.4448 3.21095 18.0215 2.99524C17.824 2.8946 17.5632 2.82546 17.1093 2.78838ZM11 5.25C11.4142 5.25 11.75 5.58579 11.75 6V16C11.75 16.4142 11.4142 16.75 11 16.75C10.5858 16.75 10.25 16.4142 10.25 16V6C10.25 5.58579 10.5858 5.25 11 5.25ZM15 9.25C15.4142 9.25 15.75 9.58579 15.75 10V16C15.75 16.4142 15.4142 16.75 15 16.75C14.5858 16.75 14.25 16.4142 14.25 16V10C14.25 9.58579 14.5858 9.25 15 9.25ZM7 11.25C7.41421 11.25 7.75 11.5858 7.75 12V16C7.75 16.4142 7.41421 16.75 7 16.75C6.58579 16.75 6.25 16.4142 6.25 16V12C6.25 11.5858 6.58579 11.25 7 11.25Z" fill="#4B5563"/>
</svg>
