<svg width="22" height="20" viewBox="0 0 22 20" fill="none" xmlns="http://www.w3.org/2000/svg">
<path fill-rule="evenodd" clip-rule="evenodd" d="M9.46967 0.46967C9.76256 0.176777 10.2374 0.176777 10.5303 0.46967L12.5303 2.46967C12.671 2.61032 12.75 2.80109 12.75 3C12.75 3.19891 12.671 3.38968 12.5303 3.53033L10.5303 5.53033C10.2374 5.82322 9.76256 5.82322 9.46967 5.53033C9.17678 5.23744 9.17678 4.76256 9.46967 4.46967L10.1893 3.75H4.2C3.62757 3.75 3.24336 3.75058 2.94748 3.77476C2.66036 3.79822 2.52307 3.8401 2.43251 3.88624C2.19731 4.00608 2.00608 4.19731 1.88624 4.43251C1.8401 4.52307 1.79822 4.66035 1.77476 4.94748C1.75058 5.24336 1.75 5.62757 1.75 6.2V7.25H20.25V6.2C20.25 5.62757 20.2494 5.24336 20.2252 4.94748C20.2018 4.66036 20.1599 4.52307 20.1138 4.43251C19.9939 4.19731 19.8027 4.00609 19.5675 3.88624C19.4769 3.8401 19.3396 3.79822 19.0525 3.77476C18.7566 3.75058 18.3724 3.75 17.8 3.75H16C15.5858 3.75 15.25 3.41421 15.25 3C15.25 2.58579 15.5858 2.25 16 2.25L17.8304 2.25C18.3646 2.24999 18.8104 2.24998 19.1747 2.27974C19.5546 2.31078 19.9112 2.37789 20.2485 2.54973C20.7659 2.81339 21.1866 3.23408 21.4503 3.75153C21.6221 4.08879 21.6892 4.44545 21.7203 4.82533C21.75 5.18956 21.75 5.6354 21.75 6.16955V13.8305C21.75 14.3646 21.75 14.8104 21.7203 15.1747C21.6892 15.5546 21.6221 15.9112 21.4503 16.2485C21.1866 16.7659 20.7659 17.1866 20.2485 17.4503C19.9112 17.6221 19.5546 17.6892 19.1747 17.7203C18.8104 17.75 18.3646 17.75 17.8305 17.75L11.8107 17.75L12.5303 18.4697C12.8232 18.7626 12.8232 19.2374 12.5303 19.5303C12.2374 19.8232 11.7626 19.8232 11.4697 19.5303L9.46967 17.5303C9.32902 17.3897 9.25 17.1989 9.25 17C9.25 16.8011 9.32902 16.6103 9.46967 16.4697L11.4697 14.4697C11.7626 14.1768 12.2374 14.1768 12.5303 14.4697C12.8232 14.7626 12.8232 15.2374 12.5303 15.5303L11.8107 16.25L17.8 16.25C18.3724 16.25 18.7566 16.2494 19.0525 16.2252C19.3396 16.2018 19.4769 16.1599 19.5675 16.1138C19.8027 15.9939 19.9939 15.8027 20.1138 15.5675C20.1599 15.4769 20.2018 15.3396 20.2252 15.0525C20.2494 14.7566 20.25 14.3724 20.25 13.8V8.75H1.75V13.8C1.75 14.3724 1.75058 14.7566 1.77476 15.0525C1.79822 15.3396 1.8401 15.4769 1.88624 15.5675C2.00608 15.8027 2.19731 15.9939 2.43251 16.1138C2.52307 16.1599 2.66036 16.2018 2.94748 16.2252C3.24336 16.2494 3.62757 16.25 4.2 16.25H6C6.41422 16.25 6.75 16.5858 6.75 17C6.75 17.4142 6.41422 17.75 6 17.75L4.16955 17.75C3.6354 17.75 3.18956 17.75 2.82533 17.7203C2.44545 17.6892 2.08879 17.6221 1.75153 17.4503C1.23408 17.1866 0.813385 16.7659 0.549733 16.2485C0.377889 15.9112 0.310778 15.5546 0.27974 15.1747C0.249981 14.8104 0.24999 14.3646 0.25 13.8304V6.16957C0.24999 5.63541 0.249981 5.18956 0.27974 4.82533C0.310778 4.44545 0.377889 4.08879 0.549733 3.75153C0.813385 3.23408 1.23408 2.81338 1.75153 2.54973C2.08879 2.37789 2.44545 2.31078 2.82533 2.27974C3.18956 2.24998 3.63541 2.24999 4.16957 2.25L10.1893 2.25L9.46967 1.53033C9.17678 1.23744 9.17678 0.762563 9.46967 0.46967Z" fill="#4B5563"/>
</svg>
