<svg width="18" height="18" viewBox="0 0 18 18" fill="none" xmlns="http://www.w3.org/2000/svg">
<path fill-rule="evenodd" clip-rule="evenodd" d="M5.47325 0.875H12.5268C13.2041 0.874994 13.7505 0.874989 14.1929 0.911137C14.6484 0.948355 15.0485 1.02699 15.4187 1.21561C16.0067 1.51521 16.4848 1.99327 16.7844 2.58128C16.973 2.95146 17.0516 3.35158 17.0889 3.80711C17.125 4.24953 17.125 4.79587 17.125 5.47323V12.5268C17.125 13.2041 17.125 13.7505 17.0889 14.1929C17.0516 14.6484 16.973 15.0485 16.7844 15.4187C16.4848 16.0067 16.0067 16.4848 15.4187 16.7844C15.0485 16.973 14.6484 17.0516 14.1929 17.0889C13.7505 17.125 13.2041 17.125 12.5268 17.125H5.47323C4.79587 17.125 4.24953 17.125 3.80711 17.0889C3.35158 17.0516 2.95146 16.973 2.58128 16.7844C1.99327 16.4848 1.51521 16.0067 1.21561 15.4187C1.02699 15.0485 0.948355 14.6484 0.911137 14.1929C0.874989 13.7505 0.874994 13.2041 0.875 12.5268V5.47325C0.874994 4.79588 0.874989 4.24953 0.911137 3.80711C0.948355 3.35158 1.02699 2.95146 1.2156 2.58128C1.51521 1.99327 1.99327 1.51521 2.58128 1.2156C2.95146 1.02699 3.35158 0.948355 3.80711 0.911137C4.24953 0.874989 4.79588 0.874994 5.47325 0.875ZM7.125 15.875H10.875V2.125H7.125V15.875ZM5.875 2.125V15.875H5.5C4.78962 15.875 4.29443 15.8745 3.9089 15.843C3.53067 15.8121 3.31337 15.7545 3.14877 15.6706C2.79596 15.4909 2.50913 15.204 2.32936 14.8512C2.2455 14.6866 2.18789 14.4693 2.15699 14.0911C2.12549 13.7056 2.125 13.2104 2.125 12.5V5.5C2.125 4.78962 2.12549 4.29443 2.15699 3.9089C2.18789 3.53067 2.2455 3.31337 2.32936 3.14877C2.50913 2.79596 2.79596 2.50913 3.14877 2.32936C3.31337 2.2455 3.53067 2.18789 3.9089 2.15699C4.29443 2.12549 4.78962 2.125 5.5 2.125H5.875ZM12.125 2.125V15.875H12.5C13.2104 15.875 13.7056 15.8745 14.0911 15.843C14.4693 15.8121 14.6866 15.7545 14.8512 15.6706C15.204 15.4909 15.4909 15.204 15.6706 14.8512C15.7545 14.6866 15.8121 14.4693 15.843 14.0911C15.8745 13.7056 15.875 13.2104 15.875 12.5V5.5C15.875 4.78962 15.8745 4.29443 15.843 3.9089C15.8121 3.53067 15.7545 3.31337 15.6706 3.14877C15.4909 2.79596 15.204 2.50913 14.8512 2.32936C14.6866 2.2455 14.4693 2.18789 14.0911 2.15699C13.7056 2.12549 13.2104 2.125 12.5 2.125H12.125Z" fill="#4B5563"/>
</svg>
