<svg width="18" height="18" viewBox="0 0 18 18" fill="none" xmlns="http://www.w3.org/2000/svg">
<path d="M17.3346 5.04167H12.3346C11.993 5.04167 11.7096 4.75833 11.7096 4.41667C11.7096 4.075 11.993 3.79167 12.3346 3.79167H17.3346C17.6763 3.79167 17.9596 4.075 17.9596 4.41667C17.9596 4.75833 17.6763 5.04167 17.3346 5.04167Z" fill="#4B5563"/>
<path d="M4.0013 5.04167H0.667969C0.326302 5.04167 0.0429688 4.75833 0.0429688 4.41667C0.0429688 4.075 0.326302 3.79167 0.667969 3.79167H4.0013C4.34297 3.79167 4.6263 4.075 4.6263 4.41667C4.6263 4.75833 4.34297 5.04167 4.0013 5.04167Z" fill="#4B5563"/>
<path d="M7.33464 7.95833C5.38464 7.95833 3.79297 6.36667 3.79297 4.41667C3.79297 2.46667 5.38464 0.875 7.33464 0.875C9.28464 0.875 10.8763 2.46667 10.8763 4.41667C10.8763 6.36667 9.28464 7.95833 7.33464 7.95833ZM7.33464 2.125C6.06797 2.125 5.04297 3.15 5.04297 4.41667C5.04297 5.68333 6.06797 6.70833 7.33464 6.70833C8.6013 6.70833 9.6263 5.68333 9.6263 4.41667C9.6263 3.15 8.6013 2.125 7.33464 2.125Z" fill="#4B5563"/>
<path d="M17.3346 14.2083H14.0013C13.6596 14.2083 13.3763 13.925 13.3763 13.5833C13.3763 13.2417 13.6596 12.9583 14.0013 12.9583H17.3346C17.6763 12.9583 17.9596 13.2417 17.9596 13.5833C17.9596 13.925 17.6763 14.2083 17.3346 14.2083Z" fill="#4B5563"/>
<path d="M5.66797 14.2083H0.667969C0.326302 14.2083 0.0429688 13.925 0.0429688 13.5833C0.0429688 13.2417 0.326302 12.9583 0.667969 12.9583H5.66797C6.00964 12.9583 6.29297 13.2417 6.29297 13.5833C6.29297 13.925 6.00964 14.2083 5.66797 14.2083Z" fill="#4B5563"/>
<path d="M10.668 17.125C8.71797 17.125 7.1263 15.5333 7.1263 13.5833C7.1263 11.6333 8.71797 10.0417 10.668 10.0417C12.618 10.0417 14.2096 11.6333 14.2096 13.5833C14.2096 15.5333 12.618 17.125 10.668 17.125ZM10.668 11.2917C9.4013 11.2917 8.3763 12.3167 8.3763 13.5833C8.3763 14.85 9.4013 15.875 10.668 15.875C11.9346 15.875 12.9596 14.85 12.9596 13.5833C12.9596 12.3167 11.9346 11.2917 10.668 11.2917Z" fill="#4B5563"/>
</svg>
