<svg width="16" height="16" viewBox="0 0 16 16" fill="none" xmlns="http://www.w3.org/2000/svg">
<path d="M10.792 1.33325L5.20536 1.33325C2.7787 1.33325 1.33203 2.77992 1.33203 5.20659L1.33203 10.7866C1.33203 13.2199 2.7787 14.6666 5.20536 14.6666L10.7854 14.6666C13.212 14.6666 14.6587 13.2199 14.6587 10.7933L14.6587 5.20659C14.6654 2.77992 13.2187 1.33325 10.792 1.33325ZM11.252 7.68659C11.252 7.94659 11.0454 8.15325 10.7854 8.15325C10.5254 8.15325 10.3187 7.94659 10.3187 7.68659L10.3187 7.56659L8.50536 9.37992C8.40536 9.47992 8.27203 9.52659 8.13203 9.51325C7.99203 9.49992 7.86536 9.42659 7.79203 9.30659L7.11203 8.29325L5.52536 9.87992C5.43203 9.97325 5.3187 10.0133 5.1987 10.0133C5.0787 10.0133 4.9587 9.96659 4.87203 9.87992C4.69203 9.69992 4.69203 9.40659 4.87203 9.21992L6.8587 7.23325C6.9587 7.13325 7.09203 7.08659 7.23203 7.09992C7.37203 7.11325 7.4987 7.18659 7.57203 7.30659L8.25203 8.31992L9.6587 6.91325L9.5387 6.91325C9.2787 6.91325 9.07203 6.70659 9.07203 6.44659C9.07203 6.18659 9.2787 5.97992 9.5387 5.97992L10.7787 5.97992C10.8387 5.97992 10.8987 5.99325 10.9587 6.01325C11.072 6.05992 11.1654 6.15325 11.212 6.26659C11.2387 6.32659 11.2454 6.38659 11.2454 6.44659L11.2454 7.68659L11.252 7.68659Z" fill="#20B62F"/>
</svg>
