<svg width="20" height="20" viewBox="0 0 20 20" fill="none" xmlns="http://www.w3.org/2000/svg">
<g id="info-circle">
<path id="Vector" fill-rule="evenodd" clip-rule="evenodd" d="M9.99935 2.29163C5.74215 2.29163 2.29102 5.74276 2.29102 9.99996C2.29102 14.2572 5.74215 17.7083 9.99935 17.7083C14.2565 17.7083 17.7077 14.2572 17.7077 9.99996C17.7077 5.74276 14.2565 2.29163 9.99935 2.29163ZM1.04102 9.99996C1.04102 5.05241 5.0518 1.04163 9.99935 1.04163C14.9469 1.04163 18.9577 5.05241 18.9577 9.99996C18.9577 14.9475 14.9469 18.9583 9.99935 18.9583C5.0518 18.9583 1.04102 14.9475 1.04102 9.99996ZM9.37435 6.66663C9.37435 6.32145 9.65417 6.04163 9.99935 6.04163H10.0077C10.3529 6.04163 10.6327 6.32145 10.6327 6.66663C10.6327 7.0118 10.3529 7.29163 10.0077 7.29163H9.99935C9.65417 7.29163 9.37435 7.0118 9.37435 6.66663ZM9.99935 9.37496C10.3445 9.37496 10.6243 9.65478 10.6243 9.99996V13.3333C10.6243 13.6785 10.3445 13.9583 9.99935 13.9583C9.65417 13.9583 9.37435 13.6785 9.37435 13.3333V9.99996C9.37435 9.65478 9.65417 9.37496 9.99935 9.37496Z" fill="#4B5563"/>
</g>
</svg>
