<svg width="20" height="20" viewBox="0 0 20 20" fill="none" xmlns="http://www.w3.org/2000/svg">
<g id="vuesax/outline/lock">
<g id="lock">
<path id="Vector" d="M15 8.95866C14.6583 8.95866 14.375 8.67533 14.375 8.33366V6.66699C14.375 4.04199 13.6333 2.29199 10 2.29199C6.36667 2.29199 5.625 4.04199 5.625 6.66699V8.33366C5.625 8.67533 5.34167 8.95866 5 8.95866C4.65833 8.95866 4.375 8.67533 4.375 8.33366V6.66699C4.375 4.25033 4.95833 1.04199 10 1.04199C15.0417 1.04199 15.625 4.25033 15.625 6.66699V8.33366C15.625 8.67533 15.3417 8.95866 15 8.95866Z" fill="#4B5563"/>
<path id="Vector_2" d="M10.0013 16.0417C8.50964 16.0417 7.29297 14.825 7.29297 13.3333C7.29297 11.8417 8.50964 10.625 10.0013 10.625C11.493 10.625 12.7096 11.8417 12.7096 13.3333C12.7096 14.825 11.493 16.0417 10.0013 16.0417ZM10.0013 11.875C9.2013 11.875 8.54297 12.5333 8.54297 13.3333C8.54297 14.1333 9.2013 14.7917 10.0013 14.7917C10.8013 14.7917 11.4596 14.1333 11.4596 13.3333C11.4596 12.5333 10.8013 11.875 10.0013 11.875Z" fill="#4B5563"/>
<path id="Vector_3" d="M14.168 18.958H5.83464C2.15964 18.958 1.04297 17.8413 1.04297 14.1663V12.4997C1.04297 8.82467 2.15964 7.70801 5.83464 7.70801H14.168C17.843 7.70801 18.9596 8.82467 18.9596 12.4997V14.1663C18.9596 17.8413 17.843 18.958 14.168 18.958ZM5.83464 8.95801C2.8513 8.95801 2.29297 9.52467 2.29297 12.4997V14.1663C2.29297 17.1413 2.8513 17.708 5.83464 17.708H14.168C17.1513 17.708 17.7096 17.1413 17.7096 14.1663V12.4997C17.7096 9.52467 17.1513 8.95801 14.168 8.95801H5.83464Z" fill="#4B5563"/>
</g>
</g>
</svg>
