<svg width="20" height="20" viewBox="0 0 20 20" fill="none" xmlns="http://www.w3.org/2000/svg">
<g id="log-out-01">
<path id="Vector" fill-rule="evenodd" clip-rule="evenodd" d="M6.47325 1.875L7.5 1.875C7.84518 1.875 8.125 2.15482 8.125 2.5C8.125 2.84518 7.84518 3.125 7.5 3.125H6.5C5.78962 3.125 5.29443 3.12549 4.9089 3.15699C4.53067 3.18789 4.31337 3.2455 4.14877 3.32936C3.79596 3.50913 3.50913 3.79596 3.32936 4.14877C3.2455 4.31336 3.18789 4.53067 3.15699 4.9089C3.12549 5.29443 3.125 5.78962 3.125 6.5V13.5C3.125 14.2104 3.12549 14.7056 3.15699 15.0911C3.18789 15.4693 3.2455 15.6866 3.32936 15.8512C3.50913 16.204 3.79596 16.4909 4.14877 16.6706C4.31337 16.7545 4.53067 16.8121 4.9089 16.843C5.29443 16.8745 5.78962 16.875 6.5 16.875H7.5C7.84518 16.875 8.125 17.1548 8.125 17.5C8.125 17.8452 7.84518 18.125 7.5 18.125H6.47323C5.79587 18.125 5.24953 18.125 4.80711 18.0889C4.35158 18.0516 3.95146 17.973 3.58128 17.7844C2.99327 17.4848 2.51521 17.0067 2.21561 16.4187C2.02699 16.0485 1.94835 15.6484 1.91114 15.1929C1.87499 14.7505 1.87499 14.2041 1.875 13.5268V6.47325C1.87499 5.79588 1.87499 5.24953 1.91114 4.80711C1.94836 4.35158 2.02699 3.95146 2.21561 3.58128C2.51521 2.99327 2.99327 2.51521 3.58128 2.2156C3.95146 2.02699 4.35158 1.94835 4.80711 1.91114C5.24954 1.87499 5.79588 1.87499 6.47325 1.875ZM12.8914 5.39139C13.1355 5.14731 13.5312 5.14731 13.7753 5.39139L17.9419 9.55806C18.186 9.80214 18.186 10.1979 17.9419 10.4419L13.7753 14.6086C13.5312 14.8527 13.1355 14.8527 12.8914 14.6086C12.6473 14.3645 12.6473 13.9688 12.8914 13.7247L15.9911 10.625H7.5C7.15482 10.625 6.875 10.3452 6.875 10C6.875 9.65482 7.15482 9.375 7.5 9.375H15.9911L12.8914 6.27528C12.6473 6.0312 12.6473 5.63547 12.8914 5.39139Z" fill="#FF0000"/>
</g>
</svg>
