<svg width="32" height="32" viewBox="0 0 32 32" fill="none" xmlns="http://www.w3.org/2000/svg">
<g id="Pdf">
<g id="Vector">
<path d="M11.0214 19.5732C10.776 19.5732 10.6107 19.5972 10.5254 19.6212V21.1918C10.6267 21.2158 10.7534 21.2225 10.928 21.2225C11.5667 21.2225 11.96 20.8998 11.96 20.3545C11.96 19.8665 11.6214 19.5732 11.0214 19.5732ZM15.6707 19.5892C15.404 19.5892 15.2307 19.6132 15.128 19.6372V23.1172C15.2307 23.1412 15.396 23.1412 15.5454 23.1412C16.6347 23.1492 17.344 22.5492 17.344 21.2798C17.352 20.1732 16.7054 19.5892 15.6707 19.5892Z" fill="#4B5563"/>
<path d="M18.6654 2.6665H7.9987C7.29145 2.6665 6.61318 2.94746 6.11308 3.44755C5.61298 3.94765 5.33203 4.62593 5.33203 5.33317V26.6665C5.33203 27.3737 5.61298 28.052 6.11308 28.5521C6.61318 29.0522 7.29145 29.3332 7.9987 29.3332H23.9987C24.7059 29.3332 25.3842 29.0522 25.8843 28.5521C26.3844 28.052 26.6654 27.3737 26.6654 26.6665V10.6665L18.6654 2.6665ZM12.6627 21.5865C12.2507 21.9732 11.6427 22.1465 10.9347 22.1465C10.7974 22.148 10.6602 22.14 10.524 22.1225V24.0238H9.33203V18.7758C9.86997 18.6956 10.4135 18.659 10.9574 18.6665C11.7 18.6665 12.228 18.8078 12.584 19.0918C12.9227 19.3612 13.152 19.8025 13.152 20.3225C13.1507 20.8452 12.9774 21.2865 12.6627 21.5865ZM17.7387 23.3932C17.1787 23.8585 16.3267 24.0798 15.2854 24.0798C14.6614 24.0798 14.22 24.0398 13.92 23.9998V18.7772C14.4582 18.6986 15.0015 18.6616 15.5454 18.6665C16.5547 18.6665 17.2107 18.8478 17.7227 19.2345C18.276 19.6452 18.6227 20.2998 18.6227 21.2398C18.6227 22.2572 18.2507 22.9598 17.7387 23.3932ZM22.6654 19.6932H20.6227V20.9078H22.532V21.8865H20.6227V24.0252H19.4147V18.7065H22.6654V19.6932ZM17.332 11.9998V5.33317L23.9987 11.9998H17.332Z" fill="#4B5563"/>
</g>
</g>
</svg>
