<svg width="20" height="20" viewBox="0 0 20 20" fill="none" xmlns="http://www.w3.org/2000/svg">
<g id="Percentage">
<path id="Vector" fill-rule="evenodd" clip-rule="evenodd" d="M10.0013 2.29175C5.74411 2.29175 2.29297 5.74289 2.29297 10.0001C2.29297 14.2573 5.74411 17.7084 10.0013 17.7084C14.2585 17.7084 17.7096 14.2573 17.7096 10.0001C17.7096 5.74289 14.2585 2.29175 10.0013 2.29175ZM1.04297 10.0001C1.04297 5.05253 5.05375 1.04175 10.0013 1.04175C14.9489 1.04175 18.9596 5.05253 18.9596 10.0001C18.9596 14.9476 14.9489 18.9584 10.0013 18.9584C5.05375 18.9584 1.04297 14.9476 1.04297 10.0001ZM13.7766 6.22481C14.0207 6.46888 14.0207 6.86461 13.7766 7.10869L7.10991 13.7754C6.86583 14.0194 6.47011 14.0194 6.22603 13.7754C5.98195 13.5313 5.98195 13.1356 6.22603 12.8915L12.8927 6.22481C13.1368 5.98073 13.5325 5.98073 13.7766 6.22481ZM6.45964 7.50008C6.45964 6.92479 6.92601 6.45842 7.5013 6.45842C8.0766 6.45842 8.54297 6.92479 8.54297 7.50008C8.54297 8.07538 8.0766 8.54175 7.5013 8.54175C6.92601 8.54175 6.45964 8.07538 6.45964 7.50008ZM11.4596 12.5001C11.4596 11.9248 11.926 11.4584 12.5013 11.4584C13.0766 11.4584 13.543 11.9248 13.543 12.5001C13.543 13.0754 13.0766 13.5418 12.5013 13.5418C11.926 13.5418 11.4596 13.0754 11.4596 12.5001Z" fill="#4B5563"/>
</g>
</svg>
