<svg width="20" height="20" viewBox="0 0 20 20" fill="none" xmlns="http://www.w3.org/2000/svg">
<g id="plus">
<path id="Vector" fill-rule="evenodd" clip-rule="evenodd" d="M9.9974 3.54199C10.3426 3.54199 10.6224 3.82181 10.6224 4.16699V9.37533H15.8307C16.1759 9.37533 16.4557 9.65515 16.4557 10.0003C16.4557 10.3455 16.1759 10.6253 15.8307 10.6253H10.6224V15.8337C10.6224 16.1788 10.3426 16.4587 9.9974 16.4587C9.65222 16.4587 9.3724 16.1788 9.3724 15.8337V10.6253H4.16406C3.81888 10.6253 3.53906 10.3455 3.53906 10.0003C3.53906 9.65515 3.81888 9.37533 4.16406 9.37533H9.3724V4.16699C9.3724 3.82181 9.65222 3.54199 9.9974 3.54199Z" fill="#4B5563"/>
</g>
</svg>
