<svg width="16" height="16" viewBox="0 0 16 16" fill="none" xmlns="http://www.w3.org/2000/svg">
<path d="M10.792 14.6667L5.20536 14.6667C2.7787 14.6667 1.33203 13.2201 1.33203 10.7934L1.33203 5.21341C1.33203 2.78008 2.7787 1.33341 5.20537 1.33341L10.7854 1.33341C13.212 1.33342 14.6587 2.78008 14.6587 5.20675L14.6587 10.7934C14.6654 13.2201 13.2187 14.6667 10.792 14.6667ZM11.252 8.31342C11.252 8.05342 11.0454 7.84675 10.7854 7.84675C10.5254 7.84675 10.3187 8.05342 10.3187 8.31342L10.3187 8.43342L8.50537 6.62008C8.40537 6.52008 8.27203 6.47342 8.13203 6.48675C7.99203 6.50008 7.86537 6.57342 7.79203 6.69342L7.11203 7.70675L5.52537 6.12008C5.43203 6.02675 5.3187 5.98675 5.1987 5.98675C5.0787 5.98675 4.9587 6.03342 4.87203 6.12008C4.69203 6.30008 4.69203 6.59341 4.87203 6.78008L6.8587 8.76675C6.9587 8.86675 7.09203 8.91342 7.23203 8.90008C7.37203 8.88675 7.4987 8.81342 7.57203 8.69342L8.25203 7.68008L9.6587 9.08675L9.5387 9.08675C9.2787 9.08675 9.07203 9.29342 9.07203 9.55342C9.07203 9.81342 9.2787 10.0201 9.5387 10.0201L10.7787 10.0201C10.8387 10.0201 10.8987 10.0067 10.9587 9.98675C11.072 9.94008 11.1654 9.84675 11.212 9.73342C11.2387 9.67342 11.2454 9.61342 11.2454 9.55342L11.2454 8.31342L11.252 8.31342Z" fill="#FF0000"/>
</svg>
