<svg width="20" height="20" viewBox="0 0 20 20" fill="none" xmlns="http://www.w3.org/2000/svg">
<g id="trash-01">
<path id="Vector" fill-rule="evenodd" clip-rule="evenodd" d="M9.30797 1.04199H10.692C11.1372 1.04198 11.5087 1.04198 11.8122 1.06678C12.1288 1.09264 12.426 1.14857 12.7071 1.29177C13.1383 1.51148 13.4888 1.86206 13.7086 2.29326C13.8518 2.57432 13.9077 2.87153 13.9335 3.1881C13.9584 3.49163 13.9583 3.86316 13.9583 4.30828V4.37533H17.5C17.8452 4.37533 18.125 4.65515 18.125 5.00033C18.125 5.3455 17.8452 5.62533 17.5 5.62533H16.4583V14.3604C16.4583 15.0378 16.4583 15.5841 16.4222 16.0265C16.385 16.4821 16.3063 16.8822 16.1177 17.2524C15.8181 17.8404 15.3401 18.3185 14.7521 18.6181C14.3819 18.8067 13.9818 18.8853 13.5262 18.9225C13.0838 18.9587 12.5375 18.9587 11.8601 18.9587H8.1399C7.46254 18.9587 6.9162 18.9587 6.47378 18.9225C6.01825 18.8853 5.61813 18.8067 5.24795 18.6181C4.65994 18.3185 4.18188 17.8404 3.88227 17.2524C3.69365 16.8822 3.61502 16.4821 3.5778 16.0265C3.54166 15.5841 3.54166 15.0378 3.54167 14.3604L3.54167 5.62533H2.5C2.15482 5.62533 1.875 5.3455 1.875 5.00033C1.875 4.65515 2.15482 4.37533 2.5 4.37533H6.04167V4.3083C6.04166 3.86317 6.04165 3.49163 6.06645 3.1881C6.09231 2.87153 6.14824 2.57432 6.29144 2.29326C6.51115 1.86206 6.86173 1.51148 7.29294 1.29177C7.57399 1.14857 7.8712 1.09264 8.18777 1.06678C8.4913 1.04198 8.86284 1.04198 9.30797 1.04199ZM4.79167 5.62533V14.3337C4.79167 15.044 4.79215 15.5392 4.82365 15.9248C4.85455 16.303 4.91216 16.5203 4.99603 16.6849C5.17579 17.0377 5.46263 17.3245 5.81543 17.5043C5.98003 17.5882 6.19734 17.6458 6.57557 17.6767C6.96109 17.7082 7.45629 17.7087 8.16667 17.7087H11.8333C12.5437 17.7087 13.0389 17.7082 13.4244 17.6767C13.8027 17.6458 14.02 17.5882 14.1846 17.5043C14.5374 17.3245 14.8242 17.0377 15.004 16.6849C15.0878 16.5203 15.1454 16.303 15.1763 15.9248C15.2078 15.5392 15.2083 15.044 15.2083 14.3337V5.62533H4.79167ZM12.7083 4.37533H7.29167V4.33366C7.29167 3.85664 7.29215 3.53646 7.3123 3.28989C7.33185 3.05062 7.36675 2.93622 7.4052 2.86075C7.50507 2.66475 7.66442 2.5054 7.86043 2.40553C7.93589 2.36708 8.0503 2.33217 8.28956 2.31262C8.53613 2.29248 8.85631 2.29199 9.33333 2.29199H10.6667C11.1437 2.29199 11.4639 2.29248 11.7104 2.31262C11.9497 2.33217 12.0641 2.36708 12.1396 2.40553C12.3356 2.5054 12.4949 2.66475 12.5948 2.86075C12.6333 2.93622 12.6682 3.05062 12.6877 3.28989C12.7078 3.53646 12.7083 3.85664 12.7083 4.33366V4.37533ZM8.33333 8.95866C8.67851 8.95866 8.95833 9.23848 8.95833 9.58366V13.7503C8.95833 14.0955 8.67851 14.3753 8.33333 14.3753C7.98816 14.3753 7.70833 14.0955 7.70833 13.7503V9.58366C7.70833 9.23848 7.98816 8.95866 8.33333 8.95866ZM11.6667 8.95866C12.0118 8.95866 12.2917 9.23848 12.2917 9.58366V13.7503C12.2917 14.0955 12.0118 14.3753 11.6667 14.3753C11.3215 14.3753 11.0417 14.0955 11.0417 13.7503V9.58366C11.0417 9.23848 11.3215 8.95866 11.6667 8.95866Z" fill="#C33F2A"/>
</g>
</svg>
