<svg width="20" height="20" viewBox="0 0 20 20" fill="none" xmlns="http://www.w3.org/2000/svg">
<path d="M16.2586 4.87508L11.3086 2.01675C10.5003 1.55008 9.50026 1.55008 8.68359 2.01675L3.74193 4.87508C2.93359 5.34175 2.43359 6.20842 2.43359 7.15008V12.8501C2.43359 13.7834 2.93359 14.6501 3.74193 15.1251L8.69193 17.9834C9.50026 18.4501 10.5003 18.4501 11.3169 17.9834L16.2669 15.1251C17.0753 14.6584 17.5753 13.7917 17.5753 12.8501V7.15008C17.5669 6.20842 17.0669 5.35008 16.2586 4.87508ZM9.37526 6.45842C9.37526 6.11675 9.65859 5.83342 10.0003 5.83342C10.3419 5.83342 10.6253 6.11675 10.6253 6.45842V10.8334C10.6253 11.1751 10.3419 11.4584 10.0003 11.4584C9.65859 11.4584 9.37526 11.1751 9.37526 10.8334V6.45842ZM10.7669 13.8584C10.7253 13.9584 10.6669 14.0501 10.5919 14.1334C10.4336 14.2917 10.2253 14.3751 10.0003 14.3751C9.89193 14.3751 9.78359 14.3501 9.68359 14.3084C9.57526 14.2667 9.49193 14.2084 9.40859 14.1334C9.33359 14.0501 9.27526 13.9584 9.22526 13.8584C9.18359 13.7584 9.16693 13.6501 9.16693 13.5417C9.16693 13.3251 9.25026 13.1084 9.40859 12.9501C9.49193 12.8751 9.57526 12.8167 9.68359 12.7751C9.99193 12.6417 10.3586 12.7167 10.5919 12.9501C10.6669 13.0334 10.7253 13.1167 10.7669 13.2251C10.8086 13.3251 10.8336 13.4334 10.8336 13.5417C10.8336 13.6501 10.8086 13.7584 10.7669 13.8584Z" fill="#4B5563"/>
</svg>
